<svg width="850" height="300" xmlns="http://www.w3.org/2000/svg">
  <defs><style>
        .task-label { font-family: Arial; font-size: 14px; font-weight: bold; }
        .axis-label { font-family: Arial; font-size: 12px; fill: #333; }
        .grid-line { stroke: #E0E0E0; stroke-width: 1; }
        .title { font-family: Arial; font-size: 18px; font-weight: bold; fill: #333; }
        .legend-text { font-family: Arial; font-size: 11px; fill: #333; }
    </style></defs>
      <rect width="850" height="300" fill="#FFF"/>
  <text x="425.0" y="30" text-anchor="middle" class="title">Diagrama de Gantt - FIFOScheduler</text>
  <!-- Grid -->
  <line x1="50" y1="60" x2="50" y2="220" class="grid-line"/>
  <line x1="100" y1="60" x2="100" y2="220" class="grid-line"/>
  <line x1="150" y1="60" x2="150" y2="220" class="grid-line"/>
  <line x1="200" y1="60" x2="200" y2="220" class="grid-line"/>
  <line x1="250" y1="60" x2="250" y2="220" class="grid-line"/>
  <line x1="300" y1="60" x2="300" y2="220" class="grid-line"/>
  <line x1="350" y1="60" x2="350" y2="220" class="grid-line"/>
  <line x1="400" y1="60" x2="400" y2="220" class="grid-line"/>
  <line x1="450" y1="60" x2="450" y2="220" class="grid-line"/>
  <line x1="500" y1="60" x2="500" y2="220" class="grid-line"/>
  <line x1="550" y1="60" x2="550" y2="220" class="grid-line"/>
  <line x1="600" y1="60" x2="600" y2="220" class="grid-line"/>
  <line x1="650" y1="60" x2="650" y2="220" class="grid-line"/>
  <line x1="700" y1="60" x2="700" y2="220" class="grid-line"/>
  <line x1="750" y1="60" x2="750" y2="220" class="grid-line"/>
  <line x1="800" y1="60" x2="800" y2="220" class="grid-line"/>
  <line x1="50" y1="60" x2="800" y2="60" class="grid-line"/>
  <line x1="50" y1="100" x2="800" y2="100" class="grid-line"/>
  <line x1="50" y1="140" x2="800" y2="140" class="grid-line"/>
  <line x1="50" y1="180" x2="800" y2="180" class="grid-line"/>
  <line x1="50" y1="220" x2="800" y2="220" class="grid-line"/>
  <!-- Eixo Tempo -->
  <text x="50" y="240" text-anchor="middle" class="axis-label">0</text>
  <text x="100" y="240" text-anchor="middle" class="axis-label">1</text>
  <text x="150" y="240" text-anchor="middle" class="axis-label">2</text>
  <text x="200" y="240" text-anchor="middle" class="axis-label">3</text>
  <text x="250" y="240" text-anchor="middle" class="axis-label">4</text>
  <text x="300" y="240" text-anchor="middle" class="axis-label">5</text>
  <text x="350" y="240" text-anchor="middle" class="axis-label">6</text>
  <text x="400" y="240" text-anchor="middle" class="axis-label">7</text>
  <text x="450" y="240" text-anchor="middle" class="axis-label">8</text>
  <text x="500" y="240" text-anchor="middle" class="axis-label">9</text>
  <text x="550" y="240" text-anchor="middle" class="axis-label">10</text>
  <text x="600" y="240" text-anchor="middle" class="axis-label">11</text>
  <text x="650" y="240" text-anchor="middle" class="axis-label">12</text>
  <text x="700" y="240" text-anchor="middle" class="axis-label">13</text>
  <text x="750" y="240" text-anchor="middle" class="axis-label">14</text>
  <text x="800" y="240" text-anchor="middle" class="axis-label">15</text>
  <text x="425.0" y="265" text-anchor="middle" class="axis-label" font-weight="bold">Tempo (ticks)</text>
  <!-- Labels Tarefas -->
  <text x="40" y="85.0" text-anchor="end" class="task-label">4</text>
  <text x="40" y="125.0" text-anchor="end" class="task-label">3</text>
  <text x="40" y="165.0" text-anchor="end" class="task-label">2</text>
  <text x="40" y="205.0" text-anchor="end" class="task-label">1</text>
  <text x="20" y="140.0" text-anchor="middle" class="axis-label" font-weight="bold" transform="rotate(-90 20 140.0)">Tarefas</text>
  <!-- Barras Espera -->
  <rect x="200" y="64" width="600" height="32" fill="none" stroke="#333" stroke-width="1"/>
  <rect x="150" y="104" width="650" height="32" fill="none" stroke="#333" stroke-width="1"/>
  <rect x="100" y="144" width="700" height="32" fill="none" stroke="#333" stroke-width="1"/>
  <rect x="50" y="184" width="750" height="32" fill="none" stroke="#333" stroke-width="1"/>
  <!-- Barras Execução -->
  <rect x="750" y="64" width="50" height="32" fill="#DA70D6" stroke="#333" stroke-width="1" opacity="0.8"/>
  <rect x="500" y="104" width="250" height="32" fill="#4682B4" stroke="#333" stroke-width="1" opacity="0.8"/>
  <rect x="400" y="144" width="100" height="32" fill="#7FFF00" stroke="#333" stroke-width="1" opacity="0.8"/>
  <rect x="50" y="184" width="350" height="32" fill="#FF4500" stroke="#333" stroke-width="1" opacity="0.8"/>
  <!-- Legenda -->
  <text x="50" y="280" class="legend-text" font-weight="bold">Legenda:</text>
  <rect x="110" y="268" width="15" height="15" fill="#FF4500" stroke="#333" stroke-width="1"/>
  <text x="130" y="280" class="legend-text">1</text>
  <rect x="210" y="268" width="15" height="15" fill="#7FFF00" stroke="#333" stroke-width="1"/>
  <text x="230" y="280" class="legend-text">2</text>
  <rect x="310" y="268" width="15" height="15" fill="#4682B4" stroke="#333" stroke-width="1"/>
  <text x="330" y="280" class="legend-text">3</text>
  <rect x="410" y="268" width="15" height="15" fill="#DA70D6" stroke="#333" stroke-width="1"/>
  <text x="430" y="280" class="legend-text">4</text>
</svg>